<?xml version="1.0" standalone="no"?>
<!DOCTYPE svg PUBLIC "-//W3C//DTD SVG 20010904//EN"
 "http://www.w3.org/TR/2001/REC-SVG-20010904/DTD/svg10.dtd">
<svg version="1.0" xmlns="http://www.w3.org/2000/svg"
 width="697.000000pt" height="697.000000pt" viewBox="0 0 697.000000 697.000000"
 preserveAspectRatio="xMidYMid meet">
<metadata>
Created by potrace 1.14, written by Peter Selinger 2001-2017
</metadata>
<g transform="translate(0.000000,697.000000) scale(0.100000,-0.100000)"
fill="#000000" stroke="none">
<path d="M3299 6965 c-2 -1 -46 -6 -97 -9 -51 -4 -98 -9 -105 -11 -6 -2 -41
-6 -76 -10 -35 -3 -85 -10 -110 -15 -25 -5 -57 -12 -71 -14 -71 -13 -137 -27
-193 -42 -34 -9 -66 -17 -72 -18 -5 -2 -30 -9 -55 -16 -25 -8 -47 -14 -50 -15
-38 -9 -248 -83 -290 -103 -19 -9 -39 -17 -45 -18 -5 -1 -64 -28 -130 -60 -66
-31 -122 -58 -125 -58 -11 -2 -200 -113 -280 -164 -112 -72 -285 -201 -385
-287 -162 -139 -409 -402 -495 -525 -13 -19 -27 -37 -30 -40 -16 -13 -144
-207 -204 -309 -170 -287 -297 -598 -380 -926 -14 -55 -27 -113 -30 -130 -40
-219 -51 -291 -63 -430 -10 -114 -10 -468 0 -560 4 -38 10 -90 12 -115 5 -52
11 -91 19 -140 3 -19 8 -46 10 -60 4 -23 15 -86 22 -120 7 -38 46 -198 54
-225 115 -368 215 -600 378 -870 73 -121 221 -328 320 -446 63 -75 242 -259
332 -339 39 -36 77 -70 83 -76 7 -5 44 -34 82 -64 39 -29 72 -56 75 -59 3 -3
12 -10 21 -16 9 -5 63 -42 120 -81 168 -115 364 -222 594 -324 159 -71 519
-181 672 -204 21 -4 45 -8 53 -11 23 -7 217 -35 295 -43 92 -9 603 -8 680 2
33 4 78 9 100 12 38 5 63 9 130 20 34 6 222 44 245 50 8 2 33 8 55 14 22 6 49
13 61 15 77 17 369 123 474 172 229 107 322 158 495 271 310 202 608 473 821
749 38 48 71 90 74 93 9 7 190 280 190 285 0 3 11 23 25 46 79 125 223 443
283 624 31 93 90 298 97 337 3 13 11 57 20 98 15 75 19 101 30 175 3 23 7 51
10 64 28 147 27 732 -2 896 -3 17 -6 41 -8 55 -5 43 -15 104 -21 130 -3 14 -8
35 -10 48 -2 12 -6 32 -8 45 -2 12 -16 69 -31 127 -179 701 -589 1357 -1130
1805 -33 28 -62 52 -65 55 -23 25 -253 187 -332 235 -214 128 -295 171 -473
247 -123 53 -388 147 -456 162 -13 3 -69 17 -124 30 -85 21 -142 33 -312 61
-12 2 -57 7 -100 10 -43 4 -87 9 -98 12 -24 5 -471 13 -476 8z"/>
</g>
</svg>
